<svg data-v-423bf9ae="" xmlns="http://www.w3.org/2000/svg" viewBox="0 0 540.4615314190204 163" class="iconAbove"><!----><!----><!----><g data-v-423bf9ae="" id="7fef1aec-93f2-4d32-949c-8cb09e1775b5" fill="black" transform="matrix(4.615384615384615,0,0,4.615384615384615,-5.930768370628357,103.69230923973598)"><path d="M7.98-0.15L7.98-0.15L7.98-0.15Q6.73-0.14 5.58-0.04L5.58-0.04L5.58-0.04Q4.42 0.06 3.16 0.28L3.16 0.28L3.16 0.28Q3.16 0.36 3.11 0.66L3.11 0.66L3.11 0.66Q3.05 0.95 2.95 1.35L2.95 1.35L2.95 1.35Q2.86 1.75 2.74 2.21L2.74 2.21L2.74 2.21Q2.62 2.67 2.51 3.08L2.51 3.08L2.51 3.08Q2.39 3.49 2.32 3.79L2.32 3.79L2.32 3.79Q2.24 4.09 2.23 4.19L2.23 4.19L2.23 4.19Q2.16 4.58 2.01 5.11L2.01 5.11L2.01 5.11Q1.86 5.64 1.72 6.19L1.72 6.19L1.72 6.19Q1.57 6.73 1.47 7.24L1.47 7.24L1.47 7.24Q1.37 7.74 1.39 8.08L1.39 8.08L1.39 8.08Q1.39 8.23 1.34 8.40L1.34 8.40L1.34 8.40Q1.30 8.57 1.30 8.72L1.30 8.72L1.30 8.72Q1.27 8.88 1.30 9.00L1.30 9.00L1.30 9.00Q1.33 9.11 1.30 9.27L1.30 9.27L1.30 9.27Q1.40 9.39 1.55 9.44L1.55 9.44L1.55 9.44Q1.71 9.49 1.89 9.49L1.89 9.49L1.89 9.49Q2.06 9.49 2.44 9.47L2.44 9.47L2.44 9.47Q2.81 9.45 3.28 9.42L3.28 9.42L3.28 9.42Q3.74 9.38 4.25 9.32L4.25 9.32L4.25 9.32Q4.76 9.27 5.21 9.21L5.21 9.21L5.21 9.21Q5.67 9.16 6.01 9.10L6.01 9.10L6.01 9.10Q6.34 9.04 6.47 8.99L6.47 8.99L6.47 8.99Q6.64 8.81 6.66 8.69L6.66 8.69L6.66 8.69Q6.68 8.58 6.71 8.40L6.71 8.40L6.71 8.40Q6.71 8.25 6.68 8.19L6.68 8.19L6.68 8.19Q6.65 8.13 6.68 8.02L6.68 8.02L6.68 8.02Q6.58 7.90 6.30 7.85L6.30 7.85L6.30 7.85Q6.02 7.81 5.66 7.81L5.66 7.81L5.66 7.81Q5.29 7.81 4.87 7.85L4.87 7.85L4.87 7.85Q4.44 7.90 4.04 7.95L4.04 7.95L4.04 7.95Q3.64 7.99 3.30 8.04L3.30 8.04L3.30 8.04Q2.97 8.09 2.79 8.11L2.79 8.11L2.79 8.11Q2.83 7.90 2.90 7.53L2.90 7.53L2.90 7.53Q2.97 7.15 3.04 6.76L3.04 6.76L3.04 6.76Q3.12 6.36 3.19 5.99L3.19 5.99L3.19 5.99Q3.25 5.61 3.28 5.40L3.28 5.40L3.93 5.36L3.93 5.36Q4.03 5.26 4.45 5.22L4.45 5.22L4.45 5.22Q4.87 5.18 5.36 5.17L5.36 5.17L5.36 5.17Q5.85 5.15 6.30 5.14L6.30 5.14L6.30 5.14Q6.75 5.12 6.93 5.10L6.93 5.10L6.93 5.10Q6.99 5.03 7.04 4.88L7.04 4.88L7.04 4.88Q7.10 4.73 7.12 4.58L7.12 4.58L7.12 4.58Q7.14 4.42 7.14 4.28L7.14 4.28L7.14 4.28Q7.14 4.13 7.10 4.06L7.10 4.06L7.10 4.06Q7 3.98 6.73 3.96L6.73 3.96L6.73 3.96Q6.45 3.95 6.10 3.97L6.10 3.97L6.10 3.97Q5.75 3.99 5.36 4.03L5.36 4.03L5.36 4.03Q4.97 4.07 4.62 4.10L4.62 4.10L4.62 4.10Q4.27 4.13 4.03 4.12L4.03 4.12L4.03 4.12Q3.78 4.10 3.71 4.02L3.71 4.02L3.71 4.02Q3.75 3.82 3.84 3.47L3.84 3.47L3.84 3.47Q3.92 3.11 4.02 2.72L4.02 2.72L4.02 2.72Q4.12 2.34 4.23 2.00L4.23 2.00L4.23 2.00Q4.34 1.67 4.42 1.50L4.42 1.50L4.42 1.50Q4.87 1.41 5.31 1.41L5.31 1.41L5.31 1.41Q5.74 1.40 6.19 1.36L6.19 1.36L6.19 1.36Q6.54 1.32 6.88 1.29L6.88 1.29L6.88 1.29Q7.22 1.26 7.57 1.22L7.57 1.22L7.57 1.22Q7.60 1.19 7.74 1.18L7.74 1.18L7.74 1.18Q7.87 1.18 8.02 1.18L8.02 1.18L8.02 1.18Q8.18 1.18 8.30 1.18L8.30 1.18L8.30 1.18Q8.44 1.18 8.47 1.16L8.47 1.16L8.47 1.16Q8.58 1.09 8.62 1.02L8.62 1.02L8.62 1.02Q8.67 0.94 8.68 0.86L8.68 0.86L8.68 0.86Q8.69 0.78 8.69 0.71L8.69 0.71L8.69 0.71Q8.69 0.63 8.72 0.55L8.72 0.55L8.72 0.55Q8.75 0.42 8.76 0.29L8.76 0.29L8.76 0.29Q8.78 0.17 8.81 0.03L8.81 0.03L8.81 0.03Q8.75 0.01 8.64-0.02L8.64-0.02L8.64-0.02Q8.53-0.06 8.40-0.08L8.40-0.08L8.40-0.08Q8.27-0.11 8.15-0.13L8.15-0.13L8.15-0.13Q8.04-0.15 7.98-0.15ZM13.02 4.28L13.02 4.28L13.02 4.28Q12.74 3.68 12.17 3.50L12.17 3.50L12.17 3.50Q11.61 3.32 10.96 3.47L10.96 3.47L10.96 3.47Q10.32 3.63 9.70 4.07L9.70 4.07L9.70 4.07Q9.07 4.52 8.68 5.18L8.68 5.18L8.68 5.18Q8.69 5.18 8.76 5.25L8.76 5.25L8.76 5.25Q8.82 5.32 8.90 5.40L8.90 5.40L8.90 5.40Q8.97 5.47 9.04 5.54L9.04 5.54L9.04 5.54Q9.10 5.60 9.13 5.60L9.13 5.60L9.13 5.60Q9.35 5.39 9.58 5.19L9.58 5.19L9.58 5.19Q9.80 4.98 10.07 4.83L10.07 4.83L10.07 4.83Q10.30 4.69 10.61 4.61L10.61 4.61L10.61 4.61Q10.92 4.52 11.20 4.53L11.20 4.53L11.20 4.53Q11.48 4.54 11.68 4.67L11.68 4.67L11.68 4.67Q11.89 4.80 11.91 5.11L11.91 5.11L11.91 5.11Q11.93 5.33 11.87 5.57L11.87 5.57L11.87 5.57Q11.82 5.81 11.79 6.03L11.79 6.03L11.79 6.03Q11.45 6.09 11.10 6.09L11.10 6.09L11.10 6.09Q10.77 6.09 10.43 6.15L10.43 6.15L10.43 6.15Q10.09 6.20 9.69 6.34L9.69 6.34L9.69 6.34Q9.28 6.47 8.90 6.68L8.90 6.68L8.90 6.68Q8.53 6.89 8.25 7.18L8.25 7.18L8.25 7.18Q7.97 7.48 7.88 7.85L7.88 7.85L7.84 8.05L7.84 8.05Q7.87 8.05 7.83 8.09L7.83 8.09L7.83 8.09Q7.71 8.71 8.08 9.09L8.08 9.09L8.08 9.09Q8.37 9.41 8.79 9.49L8.79 9.49L8.79 9.49Q9.20 9.58 9.65 9.58L9.65 9.58L9.65 9.58Q9.65 9.56 9.67 9.56L9.67 9.56L9.67 9.56Q9.87 9.56 10.07 9.52L10.07 9.52L10.07 9.52Q10.28 9.48 10.47 9.44L10.47 9.44L10.47 9.44Q10.64 9.39 10.74 9.37L10.74 9.37L10.74 9.37Q10.84 9.34 10.91 9.31L10.91 9.31L10.91 9.31Q10.99 9.28 11.05 9.26L11.05 9.26L11.05 9.26Q11.12 9.24 11.20 9.21L11.20 9.21L11.20 9.21Q11.19 9.38 11.29 9.46L11.29 9.46L11.29 9.46Q11.40 9.53 11.44 9.69L11.44 9.69L11.44 9.69Q11.63 9.69 11.83 9.65L11.83 9.65L11.83 9.65Q12.03 9.62 12.22 9.60L12.22 9.60L12.22 9.60Q12.25 9.41 12.35 9.03L12.35 9.03L12.35 9.03Q12.45 8.65 12.52 8.36L12.52 8.36L12.54 8.34L12.54 8.34Q12.64 7.92 12.80 7.37L12.80 7.37L12.80 7.37Q12.95 6.82 13.05 6.25L13.05 6.25L13.05 6.25Q13.16 5.68 13.17 5.17L13.17 5.17L13.17 5.17Q13.19 4.65 13.02 4.28ZM11.66 6.99L11.66 6.99L11.66 6.99Q11.62 7.22 11.55 7.52L11.55 7.52L11.55 7.52Q11.48 7.81 11.40 8.05L11.40 8.05L11.40 8.05Q11.35 8.16 11.00 8.26L11.00 8.26L11.00 8.26Q10.65 8.36 10.24 8.39L10.24 8.39L10.24 8.39Q9.83 8.41 9.48 8.35L9.48 8.35L9.48 8.35Q9.13 8.29 9.10 8.09L9.10 8.09L9.10 8.09Q9.10 8.02 9.11 7.97L9.11 7.97L9.11 7.97Q9.11 7.92 9.13 7.85L9.13 7.85L9.13 7.85Q9.20 7.66 9.43 7.49L9.43 7.49L9.43 7.49Q9.66 7.32 9.84 7.25L9.84 7.25L9.84 7.25Q9.88 7.22 9.93 7.22L9.93 7.22L9.93 7.22Q9.97 7.21 10.00 7.20L10.00 7.20L10.00 7.20Q10.39 7.07 10.67 7.00L10.67 7.00L10.67 7.00Q10.95 6.93 11.33 6.93L11.33 6.93L11.33 6.93Q11.40 6.96 11.51 6.95L11.51 6.95L11.51 6.95Q11.62 6.94 11.66 6.99ZM18.68 6.80L18.68 6.80L18.68 6.80Q18.56 6.71 18.36 6.61L18.36 6.61L18.36 6.61Q18.16 6.51 17.89 6.42L17.89 6.42L17.89 6.42Q17.63 6.33 17.32 6.27L17.32 6.27L17.32 6.27Q17.01 6.20 16.70 6.16L16.70 6.16L16.70 6.16Q16.58 6.15 16.44 6.09L16.44 6.09L16.44 6.09Q16.31 6.03 16.20 5.95L16.20 5.95L16.20 5.95Q16.09 5.87 16.02 5.75L16.02 5.75L16.02 5.75Q15.96 5.63 15.97 5.49L15.97 5.49L15.99 5.46L15.99 5.46Q16.21 5.14 16.53 4.96L16.53 4.96L16.53 4.96Q16.84 4.77 17.19 4.69L17.19 4.69L17.19 4.69Q17.54 4.61 17.90 4.60L17.90 4.60L17.90 4.60Q18.26 4.59 18.55 4.62L18.55 4.62L18.55 4.62Q18.70 4.63 18.84 4.66L18.84 4.66L18.84 4.66Q18.98 4.69 19.12 4.68L19.12 4.68L19.12 4.68Q19.15 4.68 19.18 4.61L19.18 4.61L19.18 4.61Q19.21 4.54 19.23 4.46L19.23 4.46L19.23 4.46Q19.25 4.38 19.28 4.31L19.28 4.31L19.28 4.31Q19.31 4.24 19.35 4.21L19.35 4.21L19.35 4.21Q19.40 4.06 19.50 3.96L19.50 3.96L19.50 3.96Q19.60 3.85 19.57 3.70L19.57 3.70L19.57 3.70Q19.52 3.65 19.40 3.61L19.40 3.61L19.40 3.61Q19.29 3.57 19.22 3.54L19.22 3.54L19.22 3.54Q18.91 3.44 18.49 3.44L18.49 3.44L18.49 3.44Q18.07 3.43 17.61 3.52L17.61 3.52L17.61 3.52Q17.14 3.61 16.67 3.78L16.67 3.78L16.67 3.78Q16.20 3.95 15.81 4.20L15.81 4.20L15.81 4.20Q15.41 4.45 15.13 4.78L15.13 4.78L15.13 4.78Q14.85 5.11 14.77 5.52L14.77 5.52L14.77 5.52Q14.67 5.94 14.76 6.20L14.76 6.20L14.76 6.20Q14.84 6.47 15.04 6.64L15.04 6.64L15.04 6.64Q15.23 6.82 15.51 6.92L15.51 6.92L15.51 6.92Q15.78 7.01 16.08 7.08L16.08 7.08L16.08 7.08Q16.38 7.15 16.67 7.22L16.67 7.22L16.67 7.22Q16.97 7.29 17.21 7.41L17.21 7.41L17.21 7.41Q17.32 7.46 17.45 7.57L17.45 7.57L17.45 7.57Q17.58 7.69 17.56 7.85L17.56 7.85L17.56 7.85Q17.49 8.23 16.93 8.46L16.93 8.46L16.93 8.46Q16.37 8.69 15.50 8.67L15.50 8.67L15.50 8.67Q15.36 8.67 15.20 8.61L15.20 8.61L15.20 8.61Q15.04 8.55 14.88 8.46L14.88 8.46L14.88 8.46Q14.71 8.37 14.59 8.26L14.59 8.26L14.59 8.26Q14.46 8.15 14.38 8.05L14.38 8.05L14.21 7.88L14.21 7.88Q13.93 8.11 13.78 8.48L13.78 8.48L13.78 8.48Q13.64 8.85 13.51 9.11L13.51 9.11L13.51 9.11Q13.87 9.35 14.27 9.51L14.27 9.51L14.27 9.51Q14.67 9.67 15.16 9.70L15.16 9.70L15.16 9.70Q15.47 9.72 15.87 9.67L15.87 9.67L15.87 9.67Q16.27 9.63 16.68 9.54L16.68 9.54L16.68 9.54Q17.09 9.45 17.49 9.28L17.49 9.28L17.49 9.28Q17.89 9.11 18.21 8.88L18.21 8.88L18.21 8.88Q18.52 8.64 18.72 8.31L18.72 8.31L18.72 8.31Q18.91 7.98 18.91 7.56L18.91 7.56L18.91 7.56Q18.91 7.29 18.89 7.13L18.89 7.13L18.89 7.13Q18.87 6.97 18.68 6.80ZM21.39 9.07L21.39 9.07L21.39 9.07Q21.32 9.20 21.19 9.41L21.19 9.41L21.19 9.41Q21.06 9.62 20.90 9.84L20.90 9.84L20.90 9.84Q20.75 10.07 20.60 10.27L20.60 10.27L20.60 10.27Q20.45 10.47 20.36 10.57L20.36 10.57L20.36 10.57Q20.01 10.95 19.69 11.33L19.69 11.33L19.69 11.33Q19.38 11.72 18.97 12.03L18.97 12.03L19.03 12.38L19.03 12.38Q19.18 12.56 19.30 12.71L19.30 12.71L19.30 12.71Q19.42 12.85 19.70 12.85L19.70 12.85L19.70 12.85Q19.85 12.77 20.08 12.53L20.08 12.53L20.08 12.53Q20.30 12.29 20.53 12.01L20.53 12.01L20.53 12.01Q20.76 11.72 20.96 11.45L20.96 11.45L20.96 11.45Q21.17 11.17 21.29 11.02L21.29 11.02L21.29 11.02Q22.22 9.90 22.97 8.67L22.97 8.67L22.97 8.67Q23.73 7.45 24.50 6.24L24.50 6.24L24.50 6.24Q24.89 5.63 25.30 5.05L25.30 5.05L25.30 5.05Q25.72 4.47 26.04 3.84L26.04 3.84L26.04 3.84Q26.04 3.67 25.91 3.60L25.91 3.60L25.91 3.60Q25.77 3.53 25.59 3.51L25.59 3.51L25.59 3.51Q25.41 3.50 25.21 3.54L25.21 3.54L25.21 3.54Q25.02 3.57 24.89 3.63L24.89 3.63L24.89 3.63Q24.22 4.66 23.61 5.72L23.61 5.72L23.61 5.72Q23.00 6.78 22.30 7.81L22.30 7.81L22.30 7.81Q22.05 7.18 21.90 6.36L21.90 6.36L21.90 6.36Q21.76 5.53 21.73 4.82L21.73 4.82L21.73 4.82Q21.73 4.76 21.72 4.61L21.72 4.61L21.72 4.61Q21.71 4.45 21.71 4.28L21.71 4.28L21.71 4.28Q21.71 4.10 21.70 3.96L21.70 3.96L21.70 3.96Q21.69 3.82 21.66 3.81L21.66 3.81L21.66 3.81Q21.63 3.78 21.47 3.82L21.47 3.82L21.47 3.82Q21.31 3.85 21.11 3.90L21.11 3.90L21.11 3.90Q20.90 3.95 20.71 4.00L20.71 4.00L20.71 4.00Q20.51 4.05 20.44 4.05L20.44 4.05L20.44 4.05Q20.41 4.35 20.49 4.98L20.49 4.98L20.49 4.98Q20.57 5.60 20.69 6.28L20.69 6.28L20.69 6.28Q20.82 6.96 20.96 7.57L20.96 7.57L20.96 7.57Q21.11 8.19 21.22 8.47L21.22 8.47L21.22 8.47Q21.28 8.61 21.33 8.76L21.33 8.76L21.33 8.76Q21.38 8.92 21.39 9.07ZM36.57-0.15L36.57-0.15L36.57-0.15Q35.32-0.14 34.17-0.04L34.17-0.04L34.17-0.04Q33.01 0.06 31.75 0.28L31.75 0.28L31.75 0.28Q31.75 0.36 31.70 0.66L31.70 0.66L31.70 0.66Q31.64 0.95 31.54 1.35L31.54 1.35L31.54 1.35Q31.44 1.75 31.33 2.21L31.33 2.21L31.33 2.21Q31.21 2.67 31.09 3.08L31.09 3.08L31.09 3.08Q30.98 3.49 30.91 3.79L30.91 3.79L30.91 3.79Q30.83 4.09 30.81 4.19L30.81 4.19L30.81 4.19Q30.74 4.58 30.60 5.11L30.60 5.11L30.60 5.11Q30.45 5.64 30.30 6.19L30.30 6.19L30.30 6.19Q30.16 6.73 30.06 7.24L30.06 7.24L30.06 7.24Q29.96 7.74 29.97 8.08L29.97 8.08L29.97 8.08Q29.97 8.23 29.93 8.40L29.93 8.40L29.93 8.40Q29.89 8.57 29.89 8.72L29.89 8.72L29.89 8.72Q29.86 8.88 29.89 9.00L29.89 9.00L29.89 9.00Q29.92 9.11 29.89 9.27L29.89 9.27L29.89 9.27Q29.99 9.39 30.14 9.44L30.14 9.44L30.14 9.44Q30.30 9.49 30.48 9.49L30.48 9.49L30.48 9.49Q30.65 9.49 31.02 9.47L31.02 9.47L31.02 9.47Q31.40 9.45 31.86 9.42L31.86 9.42L31.86 9.42Q32.33 9.38 32.84 9.32L32.84 9.32L32.84 9.32Q33.35 9.27 33.80 9.21L33.80 9.21L33.80 9.21Q34.26 9.16 34.59 9.10L34.59 9.10L34.59 9.10Q34.93 9.04 35.06 8.99L35.06 8.99L35.06 8.99Q35.22 8.81 35.25 8.69L35.25 8.69L35.25 8.69Q35.27 8.58 35.29 8.40L35.29 8.40L35.29 8.40Q35.29 8.25 35.27 8.19L35.27 8.19L35.27 8.19Q35.24 8.13 35.27 8.02L35.27 8.02L35.27 8.02Q35.17 7.90 34.89 7.85L34.89 7.85L34.89 7.85Q34.61 7.81 34.24 7.81L34.24 7.81L34.24 7.81Q33.88 7.81 33.45 7.85L33.45 7.85L33.45 7.85Q33.03 7.90 32.63 7.95L32.63 7.95L32.63 7.95Q32.23 7.99 31.89 8.04L31.89 8.04L31.89 8.04Q31.56 8.09 31.37 8.11L31.37 8.11L31.37 8.11Q31.42 7.90 31.49 7.53L31.49 7.53L31.49 7.53Q31.56 7.15 31.63 6.76L31.63 6.76L31.63 6.76Q31.71 6.36 31.77 5.99L31.77 5.99L31.77 5.99Q31.84 5.61 31.86 5.40L31.86 5.40L32.52 5.36L32.52 5.36Q32.62 5.26 33.04 5.22L33.04 5.22L33.04 5.22Q33.46 5.18 33.95 5.17L33.95 5.17L33.95 5.17Q34.44 5.15 34.89 5.14L34.89 5.14L34.89 5.14Q35.34 5.12 35.52 5.10L35.52 5.10L35.52 5.10Q35.57 5.03 35.63 4.88L35.63 4.88L35.63 4.88Q35.69 4.73 35.71 4.58L35.71 4.58L35.71 4.58Q35.73 4.42 35.73 4.28L35.73 4.28L35.73 4.28Q35.73 4.13 35.69 4.06L35.69 4.06L35.69 4.06Q35.59 3.98 35.31 3.96L35.31 3.96L35.31 3.96Q35.04 3.95 34.69 3.97L34.69 3.97L34.69 3.97Q34.34 3.99 33.95 4.03L33.95 4.03L33.95 4.03Q33.56 4.07 33.21 4.10L33.21 4.10L33.21 4.10Q32.86 4.13 32.61 4.12L32.61 4.12L32.61 4.12Q32.37 4.10 32.30 4.02L32.30 4.02L32.30 4.02Q32.34 3.82 32.42 3.47L32.42 3.47L32.42 3.47Q32.51 3.11 32.61 2.72L32.61 2.72L32.61 2.72Q32.70 2.34 32.82 2.00L32.82 2.00L32.82 2.00Q32.93 1.67 33.01 1.50L33.01 1.50L33.01 1.50Q33.46 1.41 33.89 1.41L33.89 1.41L33.89 1.41Q34.33 1.40 34.78 1.36L34.78 1.36L34.78 1.36Q35.13 1.32 35.47 1.29L35.47 1.29L35.47 1.29Q35.81 1.26 36.16 1.22L36.16 1.22L36.16 1.22Q36.19 1.19 36.32 1.18L36.32 1.18L36.32 1.18Q36.46 1.18 36.61 1.18L36.61 1.18L36.61 1.18Q36.76 1.18 36.89 1.18L36.89 1.18L36.89 1.18Q37.03 1.18 37.06 1.16L37.06 1.16L37.06 1.16Q37.17 1.09 37.21 1.02L37.21 1.02L37.21 1.02Q37.25 0.94 37.27 0.86L37.27 0.86L37.27 0.86Q37.28 0.78 37.28 0.71L37.28 0.71L37.28 0.71Q37.28 0.63 37.31 0.55L37.31 0.55L37.31 0.55Q37.34 0.42 37.35 0.29L37.35 0.29L37.35 0.29Q37.37 0.17 37.39 0.03L37.39 0.03L37.39 0.03Q37.34 0.01 37.23-0.02L37.23-0.02L37.23-0.02Q37.11-0.06 36.99-0.08L36.99-0.08L36.99-0.08Q36.86-0.11 36.74-0.13L36.74-0.13L36.74-0.13Q36.62-0.15 36.57-0.15ZM38.26 6.65L38.26 6.65L38.26 6.65Q38.07 6.86 37.67 7.24L37.67 7.24L37.67 7.24Q37.28 7.62 36.88 8.03L36.88 8.03L36.88 8.03Q36.48 8.44 36.16 8.83L36.16 8.83L36.16 8.83Q35.84 9.21 35.80 9.42L35.80 9.42L35.80 9.42Q35.84 9.45 35.97 9.51L35.97 9.51L35.97 9.51Q36.11 9.56 36.26 9.63L36.26 9.63L36.26 9.63Q36.41 9.69 36.55 9.73L36.55 9.73L36.55 9.73Q36.69 9.77 36.74 9.76L36.74 9.76L36.74 9.76Q36.89 9.63 37.19 9.32L37.19 9.32L37.19 9.32Q37.49 9.00 37.81 8.67L37.81 8.67L37.81 8.67Q38.14 8.33 38.42 8.06L38.42 8.06L38.42 8.06Q38.71 7.78 38.85 7.76L38.85 7.76L38.85 7.76Q39.05 7.92 39.19 8.18L39.19 8.18L39.19 8.18Q39.33 8.44 39.48 8.64L39.48 8.64L39.48 8.64Q39.59 8.75 39.75 8.90L39.75 8.90L39.75 8.90Q39.90 9.04 39.97 9.17L39.97 9.17L39.97 9.17Q40.05 9.23 40.12 9.30L40.12 9.30L40.12 9.30Q40.19 9.37 40.28 9.42L40.28 9.42L40.28 9.42Q40.42 9.51 40.61 9.49L40.61 9.49L40.61 9.49Q40.81 9.46 41.01 9.37L41.01 9.37L41.01 9.37Q41.22 9.28 41.40 9.14L41.40 9.14L41.40 9.14Q41.58 9.00 41.68 8.85L41.68 8.85L41.68 8.85Q41.52 8.74 41.31 8.60L41.31 8.60L41.31 8.60Q41.10 8.46 40.87 8.22L40.87 8.22L40.87 8.22Q40.54 7.90 40.31 7.51L40.31 7.51L40.31 7.51Q40.07 7.13 39.84 6.72L39.84 6.72L39.84 6.72Q39.97 6.54 40.33 6.16L40.33 6.16L40.33 6.16Q40.70 5.78 41.13 5.38L41.13 5.38L41.13 5.38Q41.57 4.98 41.98 4.63L41.98 4.63L41.98 4.63Q42.39 4.27 42.60 4.13L42.60 4.13L42.60 4.13Q42.57 4.06 42.48 4.00L42.48 4.00L42.48 4.00Q42.38 3.95 42.35 3.89L42.35 3.89L42.35 3.89Q42.13 3.57 41.80 3.61L41.80 3.61L41.80 3.61Q41.66 3.68 41.45 3.87L41.45 3.87L41.45 3.87Q41.23 4.06 40.96 4.31L40.96 4.31L40.96 4.31Q40.70 4.55 40.43 4.81L40.43 4.81L40.43 4.81Q40.17 5.07 39.93 5.29L39.93 5.29L39.93 5.29Q39.69 5.50 39.52 5.65L39.52 5.65L39.52 5.65Q39.35 5.80 39.31 5.81L39.31 5.81L39.31 5.81Q39.02 5.28 38.86 4.71L38.86 4.71L38.86 4.71Q38.70 4.14 38.54 3.72L38.54 3.72L38.54 3.72Q38.47 3.75 38.31 3.82L38.31 3.82L38.31 3.82Q38.15 3.88 37.98 3.95L37.98 3.95L37.98 3.95Q37.80 4.02 37.65 4.10L37.65 4.10L37.65 4.10Q37.49 4.17 37.44 4.21L37.44 4.21L37.44 4.21Q37.59 4.91 37.82 5.46L37.82 5.46L37.82 5.46Q38.05 6.01 38.26 6.65ZM44.94 4.65L44.94 4.65L44.94 4.65Q44.94 4.49 44.95 4.40L44.95 4.40L44.95 4.40Q44.97 4.30 44.99 4.21L44.99 4.21L44.99 4.21Q45.01 4.13 45.05 4.03L45.05 4.03L45.05 4.03Q45.08 3.93 45.11 3.77L45.11 3.77L45.11 3.77Q44.87 3.74 44.65 3.75L44.65 3.75L44.65 3.75Q44.44 3.77 44.25 3.79L44.25 3.79L44.25 3.79Q44.06 3.82 43.93 3.86L43.93 3.86L43.93 3.86Q43.81 3.89 43.76 3.91L43.76 3.91L43.76 3.91Q43.72 4.06 43.69 4.27L43.69 4.27L43.69 4.27Q43.67 4.48 43.64 4.63L43.64 4.63L43.64 4.63Q43.58 4.90 43.55 5.07L43.55 5.07L43.55 5.07Q43.51 5.24 43.48 5.38L43.48 5.38L43.48 5.38Q43.46 5.53 43.42 5.70L43.42 5.70L43.42 5.70Q43.39 5.87 43.33 6.13L43.33 6.13L43.33 6.13Q43.18 6.83 43.02 7.58L43.02 7.58L43.02 7.58Q42.87 8.33 42.70 9.10L42.70 9.10L42.70 9.10Q42.53 9.87 42.37 10.62L42.37 10.62L42.37 10.62Q42.21 11.37 42.07 12.07L42.07 12.07L42.07 12.07Q42.04 12.18 42.08 12.22L42.08 12.22L42.08 12.22Q42.10 12.24 42.22 12.28L42.22 12.28L42.22 12.28Q42.34 12.32 42.36 12.33L42.36 12.33L42.36 12.33Q42.50 12.39 42.59 12.40L42.59 12.40L42.59 12.40Q42.67 12.42 42.75 12.41L42.75 12.41L42.75 12.41Q42.83 12.40 42.92 12.37L42.92 12.37L42.92 12.37Q43.02 12.33 43.18 12.29L43.18 12.29L43.40 11.03L43.40 11.03Q43.51 10.57 43.63 10.10L43.63 10.10L43.63 10.10Q43.75 9.63 43.85 9.17L43.85 9.17L43.85 9.17Q43.96 9.18 44.01 9.25L44.01 9.25L44.01 9.25Q44.06 9.32 44.17 9.32L44.17 9.32L44.17 9.32Q44.44 9.48 44.82 9.45L44.82 9.45L44.82 9.45Q45.21 9.42 45.61 9.30L45.61 9.30L45.61 9.30Q46.00 9.17 46.39 8.97L46.39 8.97L46.39 8.97Q46.77 8.76 47.05 8.57L47.05 8.57L47.05 8.57Q47.73 8.09 48.15 7.56L48.15 7.56L48.15 7.56Q48.58 7.03 48.73 6.27L48.73 6.27L48.73 6.27Q48.94 5.26 48.38 4.54L48.38 4.54L48.38 4.54Q48.24 4.35 48.10 4.24L48.10 4.24L48.10 4.24Q47.95 4.12 47.79 4.05L47.79 4.05L47.79 4.05Q47.63 3.98 47.44 3.93L47.44 3.93L47.44 3.93Q47.25 3.88 47.03 3.84L47.03 3.84L46.98 3.82L46.98 3.82Q46.63 3.89 46.35 3.93L46.35 3.93L46.35 3.93Q46.06 3.98 45.70 4.16L45.70 4.16L45.70 4.16Q45.50 4.27 45.26 4.42L45.26 4.42L45.26 4.42Q45.01 4.58 44.94 4.65ZM44.14 8.06L44.14 8.06L44.14 8.06Q44.16 7.92 44.22 7.57L44.22 7.57L44.22 7.57Q44.28 7.21 44.37 6.82L44.37 6.82L44.37 6.82Q44.46 6.43 44.58 6.09L44.58 6.09L44.58 6.09Q44.70 5.75 44.81 5.66L44.81 5.66L44.81 5.66Q45.02 5.47 45.33 5.35L45.33 5.35L45.33 5.35Q45.63 5.22 45.96 5.17L45.96 5.17L45.96 5.17Q46.28 5.11 46.60 5.14L46.60 5.14L46.60 5.14Q46.91 5.17 47.15 5.28L47.15 5.28L47.15 5.28Q47.39 5.39 47.51 5.61L47.51 5.61L47.51 5.61Q47.63 5.84 47.56 6.17L47.56 6.17L47.56 6.17Q47.45 6.65 47.20 6.98L47.20 6.98L47.20 6.98Q46.96 7.31 46.62 7.53L46.62 7.53L46.62 7.53Q46.28 7.76 45.89 7.90L45.89 7.90L45.89 7.90Q45.49 8.05 45.08 8.15L45.08 8.15L45.08 8.15Q44.52 8.27 44.14 8.06ZM54.29 8.95L54.29 8.95L54.29 8.95Q54.38 8.89 54.52 8.79L54.52 8.79L54.52 8.79Q54.66 8.68 54.70 8.60L54.70 8.60L54.70 8.60Q54.68 8.57 54.63 8.42L54.63 8.42L54.63 8.42Q54.57 8.27 54.50 8.11L54.50 8.11L54.50 8.11Q54.43 7.95 54.36 7.83L54.36 7.83L54.36 7.83Q54.29 7.70 54.25 7.71L54.25 7.71L54.25 7.71Q53.87 8.04 53.62 8.23L53.62 8.23L53.62 8.23Q53.37 8.41 53.16 8.52L53.16 8.52L53.16 8.52Q52.95 8.62 52.77 8.67L52.77 8.67L52.77 8.67Q52.58 8.71 52.36 8.74L52.36 8.74L52.36 8.74Q52.08 8.74 51.76 8.69L51.76 8.69L51.76 8.69Q51.44 8.64 51.16 8.51L51.16 8.51L51.16 8.51Q50.89 8.39 50.71 8.16L50.71 8.16L50.71 8.16Q50.54 7.94 50.57 7.57L50.57 7.57L50.57 7.57Q50.57 7.41 50.64 7.27L50.64 7.27L50.74 7.21L50.74 7.21Q51.30 7.20 51.85 7.18L51.85 7.18L51.85 7.18Q52.40 7.15 52.99 7.10L52.99 7.10L52.99 7.10Q53.09 7.08 53.33 7.06L53.33 7.06L53.33 7.06Q53.58 7.04 53.84 7.00L53.84 7.00L53.84 7.00Q54.10 6.96 54.32 6.88L54.32 6.88L54.32 6.88Q54.54 6.80 54.61 6.69L54.61 6.69L54.61 6.69Q54.68 6.55 54.75 6.41L54.75 6.41L54.75 6.41Q54.82 6.27 54.89 6.12L54.89 6.12L54.89 6.12Q54.96 5.98 54.98 5.81L54.98 5.81L54.98 5.81Q54.99 5.64 55.02 5.50L55.02 5.50L55.02 5.50Q55.10 4.96 54.91 4.49L54.91 4.49L54.91 4.49Q54.67 3.92 54.16 3.70L54.16 3.70L54.16 3.70Q53.65 3.49 53.04 3.55L53.04 3.55L53.04 3.55Q52.43 3.61 51.79 3.93L51.79 3.93L51.79 3.93Q51.16 4.24 50.68 4.72L50.68 4.72L50.68 4.72Q50.19 5.19 49.87 5.74L49.87 5.74L49.87 5.74Q49.55 6.29 49.42 6.90L49.42 6.90L49.42 6.90Q49.18 8.04 49.52 8.72L49.52 8.72L49.52 8.72Q49.85 9.41 50.53 9.68L50.53 9.68L50.53 9.68Q51.21 9.95 52.11 9.84L52.11 9.84L52.11 9.84Q53.00 9.72 53.89 9.24L53.89 9.24L53.89 9.24Q53.96 9.20 54.09 9.10L54.09 9.10L54.09 9.10Q54.22 9.00 54.29 8.95ZM53.80 6.12L53.80 6.12L53.80 6.12Q53.76 6.13 53.54 6.15L53.54 6.15L53.54 6.15Q53.33 6.17 53.02 6.19L53.02 6.19L53.02 6.19Q52.72 6.20 52.39 6.22L52.39 6.22L52.39 6.22Q52.05 6.24 51.76 6.26L51.76 6.26L51.76 6.26Q51.46 6.27 51.26 6.28L51.26 6.28L51.26 6.28Q51.06 6.29 51.04 6.27L51.04 6.27L51.04 6.27Q50.93 6.24 50.89 6.16L50.89 6.16L50.89 6.16Q51.06 5.61 51.50 5.21L51.50 5.21L51.50 5.21Q51.94 4.80 52.43 4.61L52.43 4.61L52.43 4.61Q52.92 4.42 53.35 4.51L53.35 4.51L53.35 4.51Q53.79 4.59 53.96 5.04L53.96 5.04L53.96 5.04Q54.03 5.19 54.03 5.45L54.03 5.45L54.03 5.45Q54.03 5.68 53.96 5.87L53.96 5.87L53.96 5.87Q53.94 5.94 53.91 6.01L53.91 6.01L53.91 6.01Q53.87 6.08 53.80 6.12ZM60.44 9.41L60.44 9.41L60.44 9.41Q60.54 9.28 60.63 9.06L60.63 9.06L60.63 9.06Q60.72 8.83 60.80 8.60L60.80 8.60L60.80 8.60Q60.87 8.36 60.94 8.13L60.94 8.13L60.94 8.13Q61.00 7.90 61.03 7.76L61.03 7.76L61.03 7.76Q61.18 7.04 61.32 6.33L61.32 6.33L61.32 6.33Q61.46 5.61 61.32 4.94L61.32 4.94L61.32 4.94Q61.19 4.27 60.81 4.03L60.81 4.03L60.81 4.03Q60.42 3.79 59.93 3.86L59.93 3.86L59.93 3.86Q59.43 3.92 58.88 4.22L58.88 4.22L58.88 4.22Q58.34 4.52 57.89 4.93L57.89 4.93L57.89 4.93Q57.99 4.47 57.95 4.03L57.95 4.03L57.95 4.03Q57.88 4.03 57.77 4.00L57.77 4.00L57.77 4.00Q57.67 3.98 57.58 4.03L57.58 4.03L57.58 4.03Q57.54 4.05 57.47 4.05L57.47 4.05L57.47 4.05Q57.40 4.05 57.32 4.05L57.32 4.05L57.32 4.05Q57.23 4.06 57.16 4.07L57.16 4.07L57.16 4.07Q57.09 4.09 57.06 4.12L57.06 4.12L57.06 4.12Q57.01 4.16 56.91 4.52L56.91 4.52L56.91 4.52Q56.81 4.89 56.69 5.43L56.69 5.43L56.69 5.43Q56.56 5.96 56.43 6.59L56.43 6.59L56.43 6.59Q56.31 7.21 56.19 7.77L56.19 7.77L56.19 7.77Q56.07 8.33 55.99 8.74L55.99 8.74L55.99 8.74Q55.92 9.16 55.89 9.27L55.89 9.27L55.89 9.27Q55.92 9.39 56.04 9.44L56.04 9.44L56.04 9.44Q56.17 9.49 56.34 9.49L56.34 9.49L56.34 9.49Q56.50 9.49 56.67 9.48L56.67 9.48L56.67 9.48Q56.84 9.46 56.95 9.46L56.95 9.46L56.95 9.46Q56.95 9.46 56.97 9.35L56.97 9.35L56.97 9.35Q56.99 9.23 57.02 9.13L57.02 9.13L57.02 9.13Q57.18 8.41 57.35 7.69L57.35 7.69L57.35 7.69Q57.53 6.96 57.85 6.24L57.85 6.24L57.85 6.24Q57.95 6.01 58.16 5.78L58.16 5.78L58.16 5.78Q58.38 5.54 58.63 5.38L58.63 5.38L58.63 5.38Q58.88 5.22 59.15 5.15L59.15 5.15L59.15 5.15Q59.42 5.08 59.63 5.16L59.63 5.16L59.63 5.16Q59.85 5.24 59.98 5.48L59.98 5.48L59.98 5.48Q60.10 5.73 60.07 6.19L60.07 6.19L60.07 6.19Q60.03 6.79 59.88 7.41L59.88 7.41L59.88 7.41Q59.74 7.91 59.61 8.41L59.61 8.41L59.61 8.41Q59.47 8.92 59.36 9.41L59.36 9.41L59.36 9.41Q59.50 9.49 59.67 9.52L59.67 9.52L59.67 9.52Q59.84 9.55 60.05 9.48L60.05 9.48L60.05 9.48Q60.14 9.45 60.24 9.44L60.24 9.44L60.24 9.44Q60.34 9.42 60.44 9.41ZM66.89 6.80L66.89 6.80L66.89 6.80Q66.78 6.71 66.58 6.61L66.58 6.61L66.58 6.61Q66.37 6.51 66.11 6.42L66.11 6.42L66.11 6.42Q65.84 6.33 65.53 6.27L65.53 6.27L65.53 6.27Q65.23 6.20 64.92 6.16L64.92 6.16L64.92 6.16Q64.79 6.15 64.66 6.09L64.66 6.09L64.66 6.09Q64.53 6.03 64.41 5.95L64.41 5.95L64.41 5.95Q64.30 5.87 64.24 5.75L64.24 5.75L64.24 5.75Q64.18 5.63 64.19 5.49L64.19 5.49L64.20 5.46L64.20 5.46Q64.43 5.14 64.74 4.96L64.74 4.96L64.74 4.96Q65.06 4.77 65.41 4.69L65.41 4.69L65.41 4.69Q65.76 4.61 66.11 4.60L66.11 4.60L66.11 4.60Q66.47 4.59 66.77 4.62L66.77 4.62L66.77 4.62Q66.92 4.63 67.06 4.66L67.06 4.66L67.06 4.66Q67.20 4.69 67.34 4.68L67.34 4.68L67.34 4.68Q67.37 4.68 67.40 4.61L67.40 4.61L67.40 4.61Q67.42 4.54 67.45 4.46L67.45 4.46L67.45 4.46Q67.47 4.38 67.49 4.31L67.49 4.31L67.49 4.31Q67.52 4.24 67.56 4.21L67.56 4.21L67.56 4.21Q67.62 4.06 67.72 3.96L67.72 3.96L67.72 3.96Q67.82 3.85 67.79 3.70L67.79 3.70L67.79 3.70Q67.73 3.65 67.62 3.61L67.62 3.61L67.62 3.61Q67.51 3.57 67.44 3.54L67.44 3.54L67.44 3.54Q67.13 3.44 66.71 3.44L66.71 3.44L66.71 3.44Q66.29 3.43 65.82 3.52L65.82 3.52L65.82 3.52Q65.35 3.61 64.88 3.78L64.88 3.78L64.88 3.78Q64.41 3.95 64.02 4.20L64.02 4.20L64.02 4.20Q63.63 4.45 63.35 4.78L63.35 4.78L63.35 4.78Q63.07 5.11 62.99 5.52L62.99 5.52L62.99 5.52Q62.89 5.94 62.97 6.20L62.97 6.20L62.97 6.20Q63.06 6.47 63.25 6.64L63.25 6.64L63.25 6.64Q63.45 6.82 63.72 6.92L63.72 6.92L63.72 6.92Q63.99 7.01 64.30 7.08L64.30 7.08L64.30 7.08Q64.60 7.15 64.89 7.22L64.89 7.22L64.89 7.22Q65.18 7.29 65.42 7.41L65.42 7.41L65.42 7.41Q65.53 7.46 65.67 7.57L65.67 7.57L65.67 7.57Q65.80 7.69 65.77 7.85L65.77 7.85L65.77 7.85Q65.70 8.23 65.14 8.46L65.14 8.46L65.14 8.46Q64.58 8.69 63.71 8.67L63.71 8.67L63.71 8.67Q63.57 8.67 63.41 8.61L63.41 8.61L63.41 8.61Q63.25 8.55 63.09 8.46L63.09 8.46L63.09 8.46Q62.93 8.37 62.80 8.26L62.80 8.26L62.80 8.26Q62.68 8.15 62.59 8.05L62.59 8.05L62.43 7.88L62.43 7.88Q62.15 8.11 62.00 8.48L62.00 8.48L62.00 8.48Q61.85 8.85 61.73 9.11L61.73 9.11L61.73 9.11Q62.09 9.35 62.49 9.51L62.49 9.51L62.49 9.51Q62.89 9.67 63.38 9.70L63.38 9.70L63.38 9.70Q63.69 9.72 64.09 9.67L64.09 9.67L64.09 9.67Q64.48 9.63 64.90 9.54L64.90 9.54L64.90 9.54Q65.31 9.45 65.71 9.28L65.71 9.28L65.71 9.28Q66.11 9.11 66.42 8.88L66.42 8.88L66.42 8.88Q66.74 8.64 66.93 8.31L66.93 8.31L66.93 8.31Q67.13 7.98 67.13 7.56L67.13 7.56L67.13 7.56Q67.13 7.29 67.11 7.13L67.11 7.13L67.11 7.13Q67.09 6.97 66.89 6.80ZM73.04 8.95L73.04 8.95L73.04 8.95Q73.12 8.89 73.26 8.79L73.26 8.79L73.26 8.79Q73.40 8.68 73.44 8.60L73.44 8.60L73.44 8.60Q73.43 8.57 73.37 8.42L73.37 8.42L73.37 8.42Q73.32 8.27 73.25 8.11L73.25 8.11L73.25 8.11Q73.18 7.95 73.11 7.83L73.11 7.83L73.11 7.83Q73.04 7.70 73.00 7.71L73.00 7.71L73.00 7.71Q72.62 8.04 72.37 8.23L72.37 8.23L72.37 8.23Q72.11 8.41 71.90 8.52L71.90 8.52L71.90 8.52Q71.69 8.62 71.51 8.67L71.51 8.67L71.51 8.67Q71.33 8.71 71.11 8.74L71.11 8.74L71.11 8.74Q70.83 8.74 70.50 8.69L70.50 8.69L70.50 8.69Q70.18 8.64 69.91 8.51L69.91 8.51L69.91 8.51Q69.64 8.39 69.46 8.16L69.46 8.16L69.46 8.16Q69.29 7.94 69.31 7.57L69.31 7.57L69.31 7.57Q69.31 7.41 69.38 7.27L69.38 7.27L69.48 7.21L69.48 7.21Q70.04 7.20 70.59 7.18L70.59 7.18L70.59 7.18Q71.15 7.15 71.74 7.10L71.74 7.10L71.74 7.10Q71.83 7.08 72.08 7.06L72.08 7.06L72.08 7.06Q72.32 7.04 72.58 7.00L72.58 7.00L72.58 7.00Q72.84 6.96 73.07 6.88L73.07 6.88L73.07 6.88Q73.29 6.80 73.36 6.69L73.36 6.69L73.36 6.69Q73.43 6.55 73.50 6.41L73.50 6.41L73.50 6.41Q73.57 6.27 73.64 6.12L73.64 6.12L73.64 6.12Q73.71 5.98 73.72 5.81L73.72 5.81L73.72 5.81Q73.74 5.64 73.77 5.50L73.77 5.50L73.77 5.50Q73.85 4.96 73.65 4.49L73.65 4.49L73.65 4.49Q73.42 3.92 72.91 3.70L72.91 3.70L72.91 3.70Q72.39 3.49 71.78 3.55L71.78 3.55L71.78 3.55Q71.18 3.61 70.54 3.93L70.54 3.93L70.54 3.93Q69.90 4.24 69.43 4.72L69.43 4.72L69.43 4.72Q68.94 5.19 68.61 5.74L68.61 5.74L68.61 5.74Q68.29 6.29 68.17 6.90L68.17 6.90L68.17 6.90Q67.93 8.04 68.26 8.72L68.26 8.72L68.26 8.72Q68.60 9.41 69.28 9.68L69.28 9.68L69.28 9.68Q69.96 9.95 70.85 9.84L70.85 9.84L70.85 9.84Q71.75 9.72 72.63 9.24L72.63 9.24L72.63 9.24Q72.70 9.20 72.84 9.10L72.84 9.10L72.84 9.10Q72.97 9.00 73.04 8.95ZM72.55 6.12L72.55 6.12L72.55 6.12Q72.51 6.13 72.29 6.15L72.29 6.15L72.29 6.15Q72.07 6.17 71.77 6.19L71.77 6.19L71.77 6.19Q71.47 6.20 71.13 6.22L71.13 6.22L71.13 6.22Q70.80 6.24 70.50 6.26L70.50 6.26L70.50 6.26Q70.21 6.27 70.01 6.28L70.01 6.28L70.01 6.28Q69.80 6.29 69.79 6.27L69.79 6.27L69.79 6.27Q69.68 6.24 69.64 6.16L69.64 6.16L69.64 6.16Q69.80 5.61 70.25 5.21L70.25 5.21L70.25 5.21Q70.69 4.80 71.18 4.61L71.18 4.61L71.18 4.61Q71.67 4.42 72.10 4.51L72.10 4.51L72.10 4.51Q72.53 4.59 72.70 5.04L72.70 5.04L72.70 5.04Q72.77 5.19 72.77 5.45L72.77 5.45L72.77 5.45Q72.77 5.68 72.70 5.87L72.70 5.87L72.70 5.87Q72.69 5.94 72.65 6.01L72.65 6.01L72.65 6.01Q72.62 6.08 72.55 6.12ZM86.04 1.40L86.04 1.40L86.04 1.40Q86.07 1.39 86.13 1.21L86.13 1.21L86.13 1.21Q86.18 1.04 86.22 0.83L86.22 0.83L86.22 0.83Q86.25 0.62 86.26 0.42L86.26 0.42L86.26 0.42Q86.27 0.22 86.20 0.15L86.20 0.15L86.20 0.15Q85.88 0.13 85.39 0.13L85.39 0.13L85.39 0.13Q84.91 0.13 84.40 0.14L84.40 0.14L84.40 0.14Q83.89 0.15 83.40 0.18L83.40 0.18L83.40 0.18Q82.91 0.21 82.57 0.22L82.57 0.22L82.57 0.22Q82.39 0.24 81.97 0.25L81.97 0.25L81.97 0.25Q81.55 0.25 81.09 0.28L81.09 0.28L81.09 0.28Q80.63 0.31 80.23 0.37L80.23 0.37L80.23 0.37Q79.84 0.43 79.73 0.55L79.73 0.55L79.73 0.55Q79.63 0.97 79.59 1.25L79.59 1.25L79.59 1.25Q79.55 1.54 79.73 1.72L79.73 1.72L79.73 1.72Q79.97 1.71 80.60 1.69L80.60 1.69L80.60 1.69Q81.23 1.68 82.00 1.65L82.00 1.65L82.00 1.65Q81.89 2.03 81.71 2.70L81.71 2.70L81.71 2.70Q81.54 3.36 81.33 4.15L81.33 4.15L81.33 4.15Q81.12 4.94 80.91 5.80L80.91 5.80L80.91 5.80Q80.71 6.65 80.56 7.40L80.56 7.40L80.56 7.40Q80.42 8.15 80.35 8.72L80.35 8.72L80.35 8.72Q80.28 9.28 80.35 9.52L80.35 9.52L80.35 9.52Q80.37 9.59 80.55 9.69L80.55 9.69L80.55 9.69Q80.72 9.79 80.96 9.70L80.96 9.70L80.96 9.70Q80.99 9.70 81.10 9.67L81.10 9.67L81.10 9.67Q81.21 9.65 81.34 9.62L81.34 9.62L81.34 9.62Q81.47 9.59 81.57 9.56L81.57 9.56L81.57 9.56Q81.68 9.52 81.72 9.51L81.72 9.51L81.72 9.51Q81.80 9.34 81.82 9.15L81.82 9.15L81.82 9.15Q81.84 8.96 81.91 8.78L81.91 8.78L81.91 8.78Q81.97 8.60 81.99 8.41L81.99 8.41L81.99 8.41Q82.01 8.22 82.04 8.04L82.04 8.04L82.04 8.04Q82.15 7.49 82.25 6.94L82.25 6.94L82.25 6.94Q82.35 6.40 82.46 5.85L82.46 5.85L82.46 5.85Q82.56 5.42 82.68 4.87L82.68 4.87L82.68 4.87Q82.81 4.31 82.94 3.74L82.94 3.74L82.94 3.74Q83.08 3.16 83.21 2.61L83.21 2.61L83.21 2.61Q83.34 2.06 83.45 1.60L83.45 1.60L83.45 1.60Q83.92 1.58 84.34 1.55L84.34 1.55L84.34 1.55Q84.76 1.53 85.10 1.51L85.10 1.51L85.10 1.51Q85.44 1.48 85.69 1.46L85.69 1.46L85.69 1.46Q85.93 1.43 86.04 1.40ZM89.12 4.68L89.12 4.68L89.12 4.68Q89.17 4.62 89.23 4.49L89.23 4.49L89.23 4.49Q89.29 4.35 89.34 4.21L89.34 4.21L89.34 4.21Q89.39 4.06 89.41 3.93L89.41 3.93L89.41 3.93Q89.43 3.79 89.38 3.74L89.38 3.74L89.38 3.74Q88.79 3.64 88.35 3.72L88.35 3.72L88.35 3.72Q87.91 3.81 87.56 3.98L87.56 3.98L87.56 3.98Q87.22 4.16 86.95 4.38L86.95 4.38L86.95 4.38Q86.69 4.61 86.46 4.79L86.46 4.79L86.45 4.79L86.45 4.79Q86.48 4.61 86.51 4.41L86.51 4.41L86.51 4.41Q86.55 4.21 86.55 4.03L86.55 4.03L86.55 4.03Q86.48 3.79 86.37 3.69L86.37 3.69L86.37 3.69Q86.25 3.58 86.10 3.54L86.10 3.54L86.10 3.54Q85.99 3.51 85.80 3.54L85.80 3.54L85.80 3.54Q85.61 3.57 85.48 3.57L85.48 3.57L85.48 3.57Q85.44 3.74 85.39 3.90L85.39 3.90L85.39 3.90Q85.34 4.06 85.30 4.21L85.30 4.21L85.30 4.21Q85.02 5.57 84.71 6.91L84.71 6.91L84.71 6.91Q84.41 8.25 84.13 9.60L84.13 9.60L84.13 9.60Q84.21 9.62 84.40 9.63L84.40 9.63L84.40 9.63Q84.59 9.65 84.79 9.64L84.79 9.64L84.79 9.64Q84.99 9.63 85.16 9.58L85.16 9.58L85.16 9.58Q85.33 9.53 85.39 9.41L85.39 9.41L85.39 9.41Q85.47 9.20 85.57 8.83L85.57 8.83L85.57 8.83Q85.67 8.46 85.75 8.04L85.75 8.04L85.75 8.04Q85.83 7.63 85.91 7.24L85.91 7.24L85.91 7.24Q85.99 6.85 86.04 6.61L86.04 6.61L86.04 6.61Q86.23 6.34 86.48 6.04L86.48 6.04L86.48 6.04Q86.74 5.74 87.06 5.47L87.06 5.47L87.06 5.47Q87.37 5.19 87.74 4.98L87.74 4.98L87.74 4.98Q88.10 4.77 88.51 4.68L88.51 4.68L88.51 4.68Q88.54 4.66 88.62 4.66L88.62 4.66L88.62 4.66Q88.70 4.66 88.72 4.68L88.72 4.68L88.72 4.68Q88.82 4.68 88.91 4.68L88.91 4.68L88.91 4.68Q89.01 4.69 89.12 4.68ZM94.08 4.28L94.08 4.28L94.08 4.28Q93.80 3.68 93.23 3.50L93.23 3.50L93.23 3.50Q92.67 3.32 92.02 3.47L92.02 3.47L92.02 3.47Q91.38 3.63 90.75 4.07L90.75 4.07L90.75 4.07Q90.13 4.52 89.74 5.18L89.74 5.18L89.74 5.18Q89.75 5.18 89.82 5.25L89.82 5.25L89.82 5.25Q89.88 5.32 89.96 5.40L89.96 5.40L89.96 5.40Q90.03 5.47 90.10 5.54L90.10 5.54L90.10 5.54Q90.16 5.60 90.19 5.60L90.19 5.60L90.19 5.60Q90.41 5.39 90.64 5.19L90.64 5.19L90.64 5.19Q90.86 4.98 91.13 4.83L91.13 4.83L91.13 4.83Q91.36 4.69 91.67 4.61L91.67 4.61L91.67 4.61Q91.98 4.52 92.26 4.53L92.26 4.53L92.26 4.53Q92.54 4.54 92.74 4.67L92.74 4.67L92.74 4.67Q92.95 4.80 92.97 5.11L92.97 5.11L92.97 5.11Q92.99 5.33 92.93 5.57L92.93 5.57L92.93 5.57Q92.88 5.81 92.85 6.03L92.85 6.03L92.85 6.03Q92.51 6.09 92.16 6.09L92.16 6.09L92.16 6.09Q91.83 6.09 91.49 6.15L91.49 6.15L91.49 6.15Q91.15 6.20 90.75 6.34L90.75 6.34L90.75 6.34Q90.34 6.47 89.96 6.68L89.96 6.68L89.96 6.68Q89.59 6.89 89.31 7.18L89.31 7.18L89.31 7.18Q89.03 7.48 88.94 7.85L88.94 7.85L88.90 8.05L88.90 8.05Q88.93 8.05 88.89 8.09L88.89 8.09L88.89 8.09Q88.77 8.71 89.14 9.09L89.14 9.09L89.14 9.09Q89.43 9.41 89.84 9.49L89.84 9.49L89.84 9.49Q90.26 9.58 90.71 9.58L90.71 9.58L90.71 9.58Q90.71 9.56 90.73 9.56L90.73 9.56L90.73 9.56Q90.93 9.56 91.13 9.52L91.13 9.52L91.13 9.52Q91.34 9.48 91.53 9.44L91.53 9.44L91.53 9.44Q91.70 9.39 91.80 9.37L91.80 9.37L91.80 9.37Q91.90 9.34 91.97 9.31L91.97 9.31L91.97 9.31Q92.05 9.28 92.11 9.26L92.11 9.26L92.11 9.26Q92.18 9.24 92.26 9.21L92.26 9.21L92.26 9.21Q92.25 9.38 92.35 9.46L92.35 9.46L92.35 9.46Q92.46 9.53 92.50 9.69L92.50 9.69L92.50 9.69Q92.69 9.69 92.89 9.65L92.89 9.65L92.89 9.65Q93.09 9.62 93.28 9.60L93.28 9.60L93.28 9.60Q93.31 9.41 93.41 9.03L93.41 9.03L93.41 9.03Q93.51 8.65 93.58 8.36L93.58 8.36L93.60 8.34L93.60 8.34Q93.70 7.92 93.86 7.37L93.86 7.37L93.86 7.37Q94.01 6.82 94.11 6.25L94.11 6.25L94.11 6.25Q94.22 5.68 94.23 5.17L94.23 5.17L94.23 5.17Q94.25 4.65 94.08 4.28ZM92.72 6.99L92.72 6.99L92.72 6.99Q92.68 7.22 92.61 7.52L92.61 7.52L92.61 7.52Q92.54 7.81 92.46 8.05L92.46 8.05L92.46 8.05Q92.41 8.16 92.06 8.26L92.06 8.26L92.06 8.26Q91.71 8.36 91.30 8.39L91.30 8.39L91.30 8.39Q90.89 8.41 90.54 8.35L90.54 8.35L90.54 8.35Q90.19 8.29 90.16 8.09L90.16 8.09L90.16 8.09Q90.16 8.02 90.17 7.97L90.17 7.97L90.17 7.97Q90.17 7.92 90.19 7.85L90.19 7.85L90.19 7.85Q90.26 7.66 90.49 7.49L90.49 7.49L90.49 7.49Q90.72 7.32 90.90 7.25L90.90 7.25L90.90 7.25Q90.94 7.22 90.99 7.22L90.99 7.22L90.99 7.22Q91.03 7.21 91.06 7.20L91.06 7.20L91.06 7.20Q91.45 7.07 91.73 7.00L91.73 7.00L91.73 7.00Q92.01 6.93 92.39 6.93L92.39 6.93L92.39 6.93Q92.46 6.96 92.57 6.95L92.57 6.95L92.57 6.95Q92.68 6.94 92.72 6.99ZM98.64 9.30L98.64 9.30L98.64 9.30Q98.80 9.23 99.01 9.11L99.01 9.11L99.01 9.11Q99.23 8.99 99.45 8.84L99.45 8.84L99.45 8.84Q99.67 8.69 99.85 8.53L99.85 8.53L99.85 8.53Q100.03 8.36 100.11 8.20L100.11 8.20L100.11 8.20Q100.17 7.84 100.07 7.69L100.07 7.69L100.07 7.69Q99.97 7.55 99.81 7.46L99.81 7.46L99.81 7.46Q99.26 7.88 98.62 8.23L98.62 8.23L98.62 8.23Q97.99 8.57 97.33 8.57L97.33 8.57L97.33 8.57Q96.77 8.57 96.49 8.34L96.49 8.34L96.49 8.34Q96.21 8.11 96.17 7.76L96.17 7.76L96.17 7.76Q96.14 7.41 96.31 6.99L96.31 6.99L96.31 6.99Q96.47 6.57 96.81 6.20L96.81 6.20L96.81 6.20Q97.15 5.82 97.61 5.55L97.61 5.55L97.61 5.55Q98.07 5.28 98.62 5.21L98.62 5.21L98.62 5.21Q98.66 5.24 98.74 5.24L98.74 5.24L98.74 5.24Q98.84 5.24 98.94 5.24L98.94 5.24L98.94 5.24Q99.05 5.24 99.13 5.24L99.13 5.24L99.13 5.24Q99.23 5.24 99.29 5.25L99.29 5.25L99.29 5.25Q99.40 5.22 99.53 5.26L99.53 5.26L99.53 5.26Q99.65 5.31 99.77 5.33L99.77 5.33L99.77 5.33Q99.89 5.35 99.99 5.31L99.99 5.31L99.99 5.31Q100.10 5.28 100.18 5.11L100.18 5.11L100.18 5.11Q100.30 4.82 100.40 4.61L100.40 4.61L100.40 4.61Q100.51 4.41 100.39 4.14L100.39 4.14L100.39 4.14Q100.17 4.02 99.90 3.98L99.90 3.98L99.90 3.98Q99.64 3.95 99.36 3.96L99.36 3.96L99.36 3.96Q97.92 4.00 96.64 4.94L96.64 4.94L96.64 4.94Q95.87 5.52 95.45 6.19L95.45 6.19L95.45 6.19Q95.03 6.86 94.93 7.50L94.93 7.50L94.93 7.50Q94.82 8.13 95.02 8.67L95.02 8.67L95.02 8.67Q95.21 9.20 95.69 9.49L95.69 9.49L95.69 9.49Q96.17 9.79 96.91 9.77L96.91 9.77L96.91 9.77Q97.66 9.76 98.64 9.30ZM104.44 5.87L104.44 5.87L104.44 5.87Q104.58 5.77 104.94 5.50L104.94 5.50L104.94 5.50Q105.29 5.22 105.69 4.92L105.69 4.92L105.69 4.92Q106.08 4.62 106.39 4.37L106.39 4.37L106.39 4.37Q106.69 4.12 106.74 4.05L106.74 4.05L106.74 4.05Q106.74 3.92 106.68 3.81L106.68 3.81L106.68 3.81Q106.62 3.70 106.55 3.61L106.55 3.61L106.55 3.61Q106.48 3.53 106.41 3.47L106.41 3.47L106.41 3.47Q106.34 3.42 106.30 3.42L106.30 3.42L106.30 3.42Q106.16 3.42 105.88 3.58L105.88 3.58L105.88 3.58Q105.60 3.75 105.24 4.00L105.24 4.00L105.24 4.00Q104.87 4.26 104.48 4.54L104.48 4.54L104.48 4.54Q104.09 4.83 103.73 5.09L103.73 5.09L103.73 5.09Q103.38 5.35 103.10 5.54L103.10 5.54L103.10 5.54Q102.83 5.73 102.70 5.75L102.70 5.75L102.70 5.75Q102.75 5.52 102.86 5.05L102.86 5.05L102.86 5.05Q102.97 4.58 103.10 4.00L103.10 4.00L103.10 4.00Q103.24 3.42 103.38 2.79L103.38 2.79L103.38 2.79Q103.52 2.16 103.63 1.61L103.63 1.61L103.63 1.61Q103.75 1.06 103.82 0.67L103.82 0.67L103.82 0.67Q103.89 0.27 103.88 0.14L103.88 0.14L103.88 0.14Q103.77 0.01 103.61 0.01L103.61 0.01L103.61 0.01Q103.47 0.01 103.31 0.01L103.31 0.01L103.31 0.01Q103.12 0.11 102.90 0.18L102.90 0.18L102.90 0.18Q102.62 0.98 102.42 1.79L102.42 1.79L102.42 1.79Q102.21 2.59 102.03 3.40L102.03 3.40L102.03 3.40Q101.81 4.33 101.60 5.23L101.60 5.23L101.60 5.23Q101.40 6.13 101.25 7.06L101.25 7.06L101.25 7.06Q101.16 7.59 101.00 8.12L101.00 8.12L101.00 8.12Q100.84 8.65 100.81 9.18L100.81 9.18L100.81 9.18Q100.88 9.30 101.00 9.31L101.00 9.31L101.00 9.31Q101.12 9.32 101.23 9.35L101.23 9.35L101.23 9.35Q101.39 9.38 101.52 9.40L101.52 9.40L101.52 9.40Q101.65 9.42 101.76 9.39L101.76 9.39L101.76 9.39Q101.86 9.37 101.93 9.27L101.93 9.27L101.93 9.27Q102.00 9.17 102.05 8.95L102.05 8.95L102.34 7.42L102.34 7.42Q102.44 7.25 102.67 7.09L102.67 7.09L102.67 7.09Q102.90 6.93 103.14 6.85L103.14 6.85L103.14 6.85Q103.36 6.96 103.56 7.19L103.56 7.19L103.56 7.19Q103.75 7.42 103.94 7.70L103.94 7.70L103.94 7.70Q104.12 7.98 104.29 8.29L104.29 8.29L104.29 8.29Q104.45 8.60 104.64 8.85L104.64 8.85L104.64 8.85Q104.83 9.10 105.05 9.26L105.05 9.26L105.05 9.26Q105.27 9.42 105.52 9.42L105.52 9.42L105.52 9.42Q105.62 9.42 105.75 9.36L105.75 9.36L105.75 9.36Q105.88 9.30 105.97 9.24L105.97 9.24L105.97 9.24Q106.05 9.20 106.18 9.12L106.18 9.12L106.18 9.12Q106.32 9.04 106.34 8.96L106.34 8.96L106.34 8.96Q106.32 8.88 106.25 8.81L106.25 8.81L106.25 8.81Q106.19 8.74 106.15 8.65L106.15 8.65L106.15 8.65Q105.98 8.39 105.71 8.02L105.71 8.02L105.71 8.02Q105.45 7.66 105.18 7.27L105.18 7.27L105.18 7.27Q104.92 6.87 104.71 6.51L104.71 6.51L104.71 6.51Q104.50 6.15 104.44 5.87ZM111.97 8.95L111.97 8.95L111.97 8.95Q112.06 8.89 112.20 8.79L112.20 8.79L112.20 8.79Q112.34 8.68 112.38 8.60L112.38 8.60L112.38 8.60Q112.36 8.57 112.31 8.42L112.31 8.42L112.31 8.42Q112.25 8.27 112.18 8.11L112.18 8.11L112.18 8.11Q112.11 7.95 112.04 7.83L112.04 7.83L112.04 7.83Q111.97 7.70 111.93 7.71L111.93 7.71L111.93 7.71Q111.55 8.04 111.30 8.23L111.30 8.23L111.30 8.23Q111.05 8.41 110.84 8.52L110.84 8.52L110.84 8.52Q110.63 8.62 110.45 8.67L110.45 8.67L110.45 8.67Q110.26 8.71 110.04 8.74L110.04 8.74L110.04 8.74Q109.76 8.74 109.44 8.69L109.44 8.69L109.44 8.69Q109.12 8.64 108.84 8.51L108.84 8.51L108.84 8.51Q108.57 8.39 108.39 8.16L108.39 8.16L108.39 8.16Q108.22 7.94 108.25 7.57L108.25 7.57L108.25 7.57Q108.25 7.41 108.32 7.27L108.32 7.27L108.42 7.21L108.42 7.21Q108.98 7.20 109.53 7.18L109.53 7.18L109.53 7.18Q110.08 7.15 110.67 7.10L110.67 7.10L110.67 7.10Q110.77 7.08 111.01 7.06L111.01 7.06L111.01 7.06Q111.26 7.04 111.52 7.00L111.52 7.00L111.52 7.00Q111.78 6.96 112 6.88L112 6.88L112 6.88Q112.22 6.80 112.29 6.69L112.29 6.69L112.29 6.69Q112.36 6.55 112.43 6.41L112.43 6.41L112.43 6.41Q112.50 6.27 112.57 6.12L112.57 6.12L112.57 6.12Q112.64 5.98 112.66 5.81L112.66 5.81L112.66 5.81Q112.67 5.64 112.70 5.50L112.70 5.50L112.70 5.50Q112.78 4.96 112.59 4.49L112.59 4.49L112.59 4.49Q112.35 3.92 111.84 3.70L111.84 3.70L111.84 3.70Q111.33 3.49 110.72 3.55L110.72 3.55L110.72 3.55Q110.11 3.61 109.47 3.93L109.47 3.93L109.47 3.93Q108.84 4.24 108.36 4.72L108.36 4.72L108.36 4.72Q107.87 5.19 107.55 5.74L107.55 5.74L107.55 5.74Q107.23 6.29 107.10 6.90L107.10 6.90L107.10 6.90Q106.86 8.04 107.20 8.72L107.20 8.72L107.20 8.72Q107.53 9.41 108.21 9.68L108.21 9.68L108.21 9.68Q108.89 9.95 109.79 9.84L109.79 9.84L109.79 9.84Q110.68 9.72 111.57 9.24L111.57 9.24L111.57 9.24Q111.64 9.20 111.77 9.10L111.77 9.10L111.77 9.10Q111.90 9.00 111.97 8.95ZM111.48 6.12L111.48 6.12L111.48 6.12Q111.44 6.13 111.22 6.15L111.22 6.15L111.22 6.15Q111.01 6.17 110.70 6.19L110.70 6.19L110.70 6.19Q110.40 6.20 110.07 6.22L110.07 6.22L110.07 6.22Q109.73 6.24 109.44 6.26L109.44 6.26L109.44 6.26Q109.14 6.27 108.94 6.28L108.94 6.28L108.94 6.28Q108.74 6.29 108.72 6.27L108.72 6.27L108.72 6.27Q108.61 6.24 108.57 6.16L108.57 6.16L108.57 6.16Q108.74 5.61 109.18 5.21L109.18 5.21L109.18 5.21Q109.62 4.80 110.11 4.61L110.11 4.61L110.11 4.61Q110.60 4.42 111.03 4.51L111.03 4.51L111.03 4.51Q111.47 4.59 111.64 5.04L111.64 5.04L111.64 5.04Q111.71 5.19 111.71 5.45L111.71 5.45L111.71 5.45Q111.71 5.68 111.64 5.87L111.64 5.87L111.64 5.87Q111.62 5.94 111.59 6.01L111.59 6.01L111.59 6.01Q111.55 6.08 111.48 6.12ZM118.09 4.68L118.09 4.68L118.09 4.68Q118.13 4.62 118.19 4.49L118.19 4.49L118.19 4.49Q118.26 4.35 118.31 4.21L118.31 4.21L118.31 4.21Q118.36 4.06 118.38 3.93L118.38 3.93L118.38 3.93Q118.40 3.79 118.34 3.74L118.34 3.74L118.34 3.74Q117.75 3.64 117.31 3.72L117.31 3.72L117.31 3.72Q116.87 3.81 116.53 3.98L116.53 3.98L116.53 3.98Q116.19 4.16 115.92 4.38L115.92 4.38L115.92 4.38Q115.65 4.61 115.43 4.79L115.43 4.79L115.42 4.79L115.42 4.79Q115.44 4.61 115.48 4.41L115.48 4.41L115.48 4.41Q115.51 4.21 115.51 4.03L115.51 4.03L115.51 4.03Q115.44 3.79 115.33 3.69L115.33 3.69L115.33 3.69Q115.22 3.58 115.07 3.54L115.07 3.54L115.07 3.54Q114.95 3.51 114.77 3.54L114.77 3.54L114.77 3.54Q114.58 3.57 114.45 3.57L114.45 3.57L114.45 3.57Q114.41 3.74 114.36 3.90L114.36 3.90L114.36 3.90Q114.31 4.06 114.27 4.21L114.27 4.21L114.27 4.21Q113.99 5.57 113.68 6.91L113.68 6.91L113.68 6.91Q113.37 8.25 113.09 9.60L113.09 9.60L113.09 9.60Q113.18 9.62 113.36 9.63L113.36 9.63L113.36 9.63Q113.55 9.65 113.76 9.64L113.76 9.64L113.76 9.64Q113.96 9.63 114.13 9.58L114.13 9.58L114.13 9.58Q114.30 9.53 114.35 9.41L114.35 9.41L114.35 9.41Q114.44 9.20 114.53 8.83L114.53 8.83L114.53 8.83Q114.63 8.46 114.72 8.04L114.72 8.04L114.72 8.04Q114.80 7.63 114.88 7.24L114.88 7.24L114.88 7.24Q114.95 6.85 115.01 6.61L115.01 6.61L115.01 6.61Q115.19 6.34 115.45 6.04L115.45 6.04L115.45 6.04Q115.71 5.74 116.02 5.47L116.02 5.47L116.02 5.47Q116.34 5.19 116.70 4.98L116.70 4.98L116.70 4.98Q117.07 4.77 117.47 4.68L117.47 4.68L117.47 4.68Q117.50 4.66 117.59 4.66L117.59 4.66L117.59 4.66Q117.67 4.66 117.68 4.68L117.68 4.68L117.68 4.68Q117.78 4.68 117.88 4.68L117.88 4.68L117.88 4.68Q117.98 4.69 118.09 4.68Z"></path></g><!----><g data-v-423bf9ae="" id="840cebdf-0069-48dc-ad36-810e78596adf" transform="matrix(1.003702555372415,0,0,1.003702555372415,221.41057322342107,-4.016928083261554)" stroke="none" fill="black"><path d="M88.077 34.411h-4.475l-4.824 3.383h7.867c.373 0 .742.047 1.093.132 2.162.504 3.77 2.461 3.77 4.793v43.093a6.968 6.968 0 0 0 3.437-6.02v-38.42c-.001-3.847-3.077-6.961-6.868-6.961z"></path><path d="M86.837 40.688H10.199a1.449 1.449 0 1 1 0-2.898h5.903l1.957-1.414 2.72-1.965h-9.714c-3.829 0-6.932 3.114-6.932 6.952v45.921c0 3.843 3.103 6.956 6.932 6.956h70.861c3.827 0 6.933-3.113 6.933-6.956v-44.57a2.03 2.03 0 0 0-2.022-2.026z"></path><path d="M49.752 26.299c-5.534-.29-10.249 3.943-10.524 9.453a9.991 9.991 0 0 0 .137 2.177h19.797c.062-.368.106-.741.126-1.122.273-5.515-3.998-10.219-9.536-10.508z"></path><path d="M39.228 35.752c.275-5.509 4.991-9.742 10.524-9.453 5.538.289 9.808 4.992 9.536 10.507-.02.381-.064.754-.126 1.122h15.577l9.822-7.292L64.814 4.572 19.895 37.929h19.47a9.991 9.991 0 0 1-.137-2.177zM40.884 5.019l-18.675 28.38L51.353 11.92z"></path></g><!----></svg>